<svg xmlns="http://www.w3.org/2000/svg" xmlns:xlink="http://www.w3.org/1999/xlink" viewbox="0 0 32 32" width="32" height="32" stroke="currentColor" fill="white"><path d="M16 4C9.4 4 4 9.4 4 16c0 5.3 3.4 9.8 8.2 11.4 0.6 0.1 0.8-0.3 0.8-0.6 0-0.3 0-1 0-2-3.3 0.7-4-1.6-4-1.6-0.5-1.4-1.3-1.8-1.4-1.8-1.1-0.7 0.1-0.7 0.1-0.7 1.2 0.1 1.8 1.2 1.9 1.2 1.1 1.8 2.8 1.3 3.4 1 0.1-0.8 0.4-1.3 0.8-1.6-2.7-0.3-5.5-1.3-5.5-5.9 0-1.3 0.5-2.4 1.3-3.2-0.1-0.3-0.5-1.5 0.1-3.2 0 0 1-0.3 3.3 1.2A11.5 11.5 0 0 1 16 9.8c1 0 2 0.1 3 0.4 2.3-1.6 3.3-1.2 3.3-1.2 0.7 1.7 0.2 2.9 0.1 3.2 0.8 0.8 1.2 1.9 1.3 3.2 0 4.6-2.8 5.6-5.5 5.9 0.4 0.4 0.8 1.1 0.8 2.2 0 1.6 0 2.9 0 3.3 0 0.3 0.2 0.7 0.8 0.6C24.6 25.8 28 21.3 28 16c0-6.6-5.4-12-12-12z" _id="63ce5a0d02ed90a9403d4eaa" _parent="63ce5a0d02ed90a9403d4ea9" fill-rule="evenodd" /></svg>